HIERARCHY
ROOT ui
{
	 OFFSET 0 0 0
	 CHANNELS 3 XPosition YPosition Z Position
	 EndSite
	 {
	 OFFSET 0 -1 0
	 }
}
ROOT li
{
	 OFFSET 0 0 0
	 CHANNELS 3 XPosition YPosition Z Position
	 EndSite
	 {
	 OFFSET 0 -1 0
	 }
}
ROOT ul
{
	 OFFSET 0 0 0
	 CHANNELS 3 XPosition YPosition Z Position
	 EndSite
	 {
	 OFFSET 0 -1 0
	 }
}
ROOT ll
{
	 OFFSET 0 0 0
	 CHANNELS 3 XPosition YPosition Z Position
	 EndSite
	 {
	 OFFSET 0 -1 0
	 }
}
ROOT tt
{
	 OFFSET 0 0 0
	 CHANNELS 3 XPosition YPosition Z Position
	 EndSite
	 {
	 OFFSET 0 -1 0
	 }
}
ROOT tb
{
	 OFFSET 0 0 0
	 CHANNELS 3 XPosition YPosition Z Position
	 EndSite
	 {
	 OFFSET 0 -1 0
	 }
}
ROOT td
{
	 OFFSET 0 0 0
	 CHANNELS 3 XPosition YPosition Z Position
	 EndSite
	 {
	 OFFSET 0 -1 0
	 }
}
ROOT v
{
	 OFFSET 0 0 0
	 CHANNELS 3 XPosition YPosition Z Position
	 EndSite
	 {
	 OFFSET 0 -1 0
	 }
}
ROOT bn
{
	 OFFSET 0 0 0
	 CHANNELS 3 XPosition YPosition Z Position
	 EndSite
	 {
	 OFFSET 0 -1 0
	 }
}
MOTION
Frames: 16
Frame Time: 0.002
0.0037168478965759278	-0.002237267017364502	0		0.5743541259765625	-2.80494775390625	0		-0.895800048828125	0.3585706481933594	0		-0.3772356872558594	-2.86065087890625	0		1.063127685546875	-0.9886376342773437	0		2.4439384765625	-0.5031086730957032	0		3.7933408203125	0.24773991394042968	0		5.9902890625	0.361182861328125	0		-0.19915260314941408	5.947029296875	0		
-0.005232019901275635	-0.001211156964302063	0		0.5766277465820312	-2.80298486328125	0		-0.8957864990234375	0.35844107055664065	0		-0.4418770751953125	-2.850111083984375	0		1.0632437744140626	-0.9886181030273438	0		2.483947998046875	-0.51037158203125	0		3.8023525390625	0.24688003540039063	0		5.99032080078125	0.3618702087402344	0		-0.23263075256347657	5.94027294921875	0		
-0.005202451229095459	-0.0012493280172348022	0		0.5799197998046876	-2.799005615234375	0		-0.8857957763671875	0.35723553466796876	0		-0.4015926208496094	-2.847569091796875	0		1.066390625	-0.984599853515625	0		2.4372607421875	-0.48475979614257814	0		3.810477294921875	0.2590689697265625	0		5.989775390625	0.39898388671875	0		-0.24917189025878905	5.93037109375	0		
0.006842794895172119	0.0016229100227355957	0		0.5842057495117188	-2.7950087890625	0		-0.89076025390625	0.3621971130371094	0		-0.4302534484863281	-2.8383388671875	0		1.0695174560546874	-0.9815534057617188	0		2.47620166015625	-0.4969427795410156	0		3.80148291015625	0.2604563293457031	0		5.9897890625	0.39982196044921875	0		-0.26375790405273436	5.9184716796875	0		
-0.0011435029506683349	0.002712630033493042	0		0.5994810180664063	-2.791088134765625	0		-0.8958241577148438	0.35818350219726564	0		-0.3940227355957031	-2.839701416015625	0		1.0606324462890624	-0.9783652954101563	0		2.474351318359375	-0.485703369140625	0		3.79740869140625	0.25482638549804687	0		5.99036474609375	0.36437384033203124	0		-0.23404299926757813	5.9401787109375	0		
-0.0011535700559616089	0.0027536380290985106	0		0.572734375	-2.787744140625	0		-0.895864013671875	0.3581495361328125	0		-0.39379458618164065	-2.839693359375	0		1.06070458984375	-0.9782352905273437	0		2.469438720703125	-0.4794083251953125	0		3.80636767578125	0.2541015014648437	0		5.98124853515625	0.407047607421875	0		-0.23169131469726562	5.9251728515625	0		
-2.5279998779296873E-4	-0.005186066150665283	0		0.6009390258789062	-2.787887451171875	0		-0.8959183349609375	0.358144775390625	0		-0.42553662109375	-2.834359619140625	0		1.0607607421875	-0.9780782470703125	0		2.45550048828125	-0.4740050048828125	0		3.815312255859375	0.25340211486816405	0		5.9939775390625	0.38351992797851564	0		-0.26526959228515623	5.91852978515625	0		
-0.001219120979309082	0.0029208719730377196	0		0.524236572265625	-2.77503271484375	0		-0.955031005859375	0.35371401977539063	0		-0.4182757568359375	-2.826360595703125	0		1.072798583984375	-0.9780052490234376	0		2.493496826171875	-0.47405914306640623	0		3.81918701171875	0.24677053833007812	0		5.9975751953125	0.4000185852050781	0		-0.26380450439453124	5.916587890625	0		
0.006714282035827637	0.0019752620458602906	0		0.61037158203125	-2.777649658203125	0		-0.871045654296875	0.3610009460449219	0		-0.4120603942871094	-2.8203203125	0		1.0719356689453126	-0.9647865600585938	0		2.48069580078125	-0.4496219482421875	0		3.815175048828125	0.2542284393310547	0		5.9897041015625	0.40467724609375	0		-0.2662989196777344	5.91871337890625	0		
-0.0013509340286254883	0.003205377101898193	0		0.55351953125	-2.77493212890625	0		-0.8911365356445312	0.36227590942382815	0		-0.4268929748535156	-2.816057373046875	0		1.069904296875	-0.9675331420898438	0		2.482554443359375	-0.460302001953125	0		3.81508203125	0.2546630554199219	0		5.98965185546875	0.4057071533203125	0		-0.28190264892578126	5.9079873046875	0		
-0.0014446239471435547	0.0033921968936920168	0		0.5976387939453125	-2.772103271484375	0		-0.8912544555664063	0.362402587890625	0		-0.4247782287597656	-2.81391748046875	0		1.071903076171875	-0.9642920532226562	0		2.46853759765625	-0.45482171630859375	0		3.809917724609375	0.24915296936035156	0		5.98654052734375	0.35489932250976564	0		-0.2823953857421875	5.9081552734375	0		
-0.00559443998336792	-3.5624200105667113E-4	0		0.545769775390625	-2.76338671875	0		-0.8913909301757813	0.36256320190429686	0		-0.4247181396484375	-2.81372802734375	0		1.0718486328125	-0.9640098876953125	0		2.511414306640625	-0.45883673095703126	0		3.814841552734375	0.2555597076416016	0		5.98950537109375	0.4077535400390625	0		-0.24783189392089844	5.913041015625	0		
-7.658489942550659E-4	-0.004157318115234375	0		0.5846979370117188	-2.773458251953125	0		-0.9505889892578125	0.3582803344726562	0		-0.44470504760742186	-2.814330810546875	0		1.0377945556640624	-0.9604052734375	0		2.476580322265625	-0.42714404296875	0		3.82769091796875	0.255900634765625	0		5.99361865234375	0.3896347961425781	0		-0.282349365234375	5.907572265625	0		
-0.001852882981300354	0.004120913982391358	0		0.5528369140625	-2.754878173828125	0		-0.87769677734375	0.36585910034179686	0		-0.4176368713378906	-2.804321533203125	0		1.0897174072265625	-0.9565430908203125	0		2.498345703125	-0.4379456787109375	0		3.8275205078125	0.2563592529296875	0		5.9935078125	0.3906163024902344	0		-0.28180752563476563	5.9068193359375	0		
0.002923099994659424	-6.279289722442627E-4	0		0.6047113037109375	-2.762015869140625	0		-0.8878829956054688	0.36720428466796873	0		-0.45167803955078123	-2.80174609375	0		1.0806051025390624	-0.9531227416992187	0		2.525332763671875	-0.42078170776367185	0		3.827329833984375	0.25681759643554686	0		5.98916943359375	0.41069235229492185	0		-0.2832306823730469	5.90811083984375	0		
-0.0013043659925460816	-0.003273861885070801	0		0.5677069091796875	-2.75035205078125	0		-0.8921324462890625	0.36352630615234377	0		-0.382824951171875	-2.80704638671875	0		1.083472900390625	-0.9487913208007812	0		2.486209228515625	-0.4130313110351562	0		3.827119140625	0.25727426147460936	0		5.9932373046875	0.3924992370605469	0		-0.2495936279296875	5.9141220703125	0		
